<?xml version="1.0" encoding="UTF-8" standalone="no"?>
<!-- Created with Inkscape (http://www.inkscape.org/) -->

<svg
   xmlns:dc="http://purl.org/dc/elements/1.1/"
   xmlns:cc="http://creativecommons.org/ns#"
   xmlns:rdf="http://www.w3.org/1999/02/22-rdf-syntax-ns#"
   xmlns:svg="http://www.w3.org/2000/svg"
   xmlns="http://www.w3.org/2000/svg"
   xmlns:sodipodi="http://sodipodi.sourceforge.net/DTD/sodipodi-0.dtd"
   xmlns:inkscape="http://www.inkscape.org/namespaces/inkscape"
   width="178.47818mm"
   height="27.964445mm"
   viewBox="0 0 632.40299 99.086616"
   id="svg2"
   version="1.1"
   inkscape:version="0.91 r13725"
   sodipodi:docname="Nanocompore_logo.svg">
  <defs
     id="defs4" />
  <sodipodi:namedview
     id="base"
     pagecolor="#ffffff"
     bordercolor="#666666"
     borderopacity="1.0"
     inkscape:pageopacity="0.0"
     inkscape:pageshadow="2"
     inkscape:zoom="2"
     inkscape:cx="277.55056"
     inkscape:cy="49.436319"
     inkscape:document-units="px"
     inkscape:current-layer="layer1"
     showgrid="false"
     fit-margin-top="1"
     fit-margin-left="1"
     fit-margin-right="1"
     fit-margin-bottom="1"
     inkscape:window-width="2560"
     inkscape:window-height="1376"
     inkscape:window-x="0"
     inkscape:window-y="27"
     inkscape:window-maximized="1" />
  <metadata
     id="metadata7">
    <rdf:RDF>
      <cc:Work
         rdf:about="">
        <dc:format>image/svg+xml</dc:format>
        <dc:type
           rdf:resource="http://purl.org/dc/dcmitype/StillImage" />
        <dc:title />
      </cc:Work>
    </rdf:RDF>
  </metadata>
  <g
     inkscape:label="Layer 1"
     inkscape:groupmode="layer"
     id="layer1"
     transform="translate(-67.614558,-63.692683)">
    <path
       style="font-style:normal;font-variant:normal;font-weight:normal;font-stretch:normal;font-size:medium;line-height:125%;font-family:'DejaVu Sans';-inkscape-font-specification:'DejaVu Sans';letter-spacing:0px;word-spacing:0px;fill:#333333;fill-opacity:1;stroke:none;stroke-width:1px;stroke-linecap:butt;stroke-linejoin:miter;stroke-opacity:1"
       d="m 105.29102,83.154297 0,44.195313 -30.318364,0 0,2.5 32.818364,0 0,-44.195313 19.97656,0 0,60.105473 26.99609,0 0,-5.02344 -2.5,0 0,2.52344 -21.99609,0 0,-60.105473 -24.97656,0 z m 46.97265,25.001953 0,30.08008 2.5,0 0,-27.58008 35.88477,0 0,18.18164 c 1.83667,-6.6e-4 3.12968,2e-5 5.50976,0 l 0,-2.5 -3.00976,0 0,-18.18164 -40.88477,0 z m 60.61133,0.63672 0,17.54492 -14.2168,0 0,2.5 c 7.48578,5.3e-4 16.84766,0.002 16.84766,0.002 l 0,-16.77148 8.89062,16.77148 3.65235,0 0,-20.04687 -2.63281,0 0,16.77148 -8.88868,-16.77148 -3.65234,0 z"
       id="path4166"
       inkscape:connector-curvature="0" />
    <path
       inkscape:connector-curvature="0"
       id="path4168"
       style="font-style:normal;font-variant:normal;font-weight:normal;font-stretch:normal;font-size:medium;line-height:125%;font-family:'DejaVu Sans';-inkscape-font-specification:'DejaVu Sans';letter-spacing:0px;word-spacing:0px;fill:#333333;fill-opacity:1;stroke:none;stroke-width:1px;stroke-linecap:butt;stroke-linejoin:miter;stroke-opacity:1"
       d="m 240.17342,121.28046 q -2.99439,0 -4.14917,0.68481 -1.15479,0.68482 -1.15479,2.33643 0,1.31591 0.85938,2.09472 0.8728,0.76538 2.36328,0.76538 2.05444,0 3.28979,-1.45019 1.24878,-1.46362 1.24878,-3.88062 l 0,-0.55053 -2.45727,0 z m 4.92797,-1.02051 0,8.58032 -2.4707,0 0,-2.28271 q -0.84595,1.36963 -2.10815,2.02758 -1.26221,0.64454 -3.08838,0.64454 -2.30957,0 -3.6792,-1.28907 -1.3562,-1.30249 -1.3562,-3.47778 0,-2.53784 1.69189,-3.8269 1.70532,-1.28907 5.07569,-1.28907 l 3.46435,0 0,-0.2417 q 0,-1.70532 -1.12793,-2.63183 -1.1145,-0.93994 -3.14209,-0.93994 -1.28906,0 -2.51098,0.30883 -1.22193,0.30884 -2.34986,0.92652 l 0,-2.28272 q 1.3562,-0.52368 2.63184,-0.77881 1.27563,-0.26855 2.48413,-0.26855 3.26294,0 4.87427,1.69189 1.61132,1.6919 1.61132,5.1294 z" />
    <path
       inkscape:connector-curvature="0"
       id="path4170"
       style="font-style:normal;font-variant:normal;font-weight:normal;font-stretch:normal;font-size:medium;line-height:125%;font-family:'DejaVu Sans';-inkscape-font-specification:'DejaVu Sans';letter-spacing:0px;word-spacing:0px;fill:#333333;fill-opacity:1;stroke:none;stroke-width:1px;stroke-linecap:butt;stroke-linejoin:miter;stroke-opacity:1"
       d="m 262.70515,119.76312 0,9.07715 -2.4707,0 0,-8.99658 q 0,-2.13501 -0.83252,-3.1958 -0.83252,-1.06079 -2.49756,-1.06079 -2.00073,0 -3.15551,1.27563 -1.15479,1.27564 -1.15479,3.47779 l 0,8.49975 -2.48413,0 0,-15.03906 2.48413,0 0,2.33642 q 0.88623,-1.3562 2.0813,-2.02758 1.2085,-0.67139 2.77954,-0.67139 2.59155,0 3.9209,1.61133 1.32934,1.5979 1.32934,4.71313 z" />
    <path
       inkscape:connector-curvature="0"
       id="path4172"
       style="font-style:normal;font-variant:normal;font-weight:normal;font-stretch:normal;font-size:medium;line-height:125%;font-family:'DejaVu Sans';-inkscape-font-specification:'DejaVu Sans';letter-spacing:0px;word-spacing:0px;fill:#333333;fill-opacity:1;stroke:none;stroke-width:1px;stroke-linecap:butt;stroke-linejoin:miter;stroke-opacity:1"
       d="m 273.48763,115.53339 q -1.98731,0 -3.14209,1.55761 -1.15479,1.54419 -1.15479,4.24317 0,2.69897 1.14136,4.25659 1.15478,1.54419 3.15552,1.54419 1.97387,0 3.12866,-1.55762 1.15478,-1.55762 1.15478,-4.24316 0,-2.67212 -1.15478,-4.22974 -1.15479,-1.57104 -3.12866,-1.57104 z m 0,-2.09473 q 3.22265,0 5.06225,2.09473 1.8396,2.09472 1.8396,5.80078 0,3.69262 -1.8396,5.80078 -1.8396,2.09473 -5.06225,2.09473 -3.23609,0 -5.07569,-2.09473 -1.82617,-2.10816 -1.82617,-5.80078 0,-3.70606 1.82617,-5.80078 1.8396,-2.09473 5.07569,-2.09473 z" />
    <path
       inkscape:connector-curvature="0"
       id="path4174"
       style="font-style:normal;font-variant:normal;font-weight:normal;font-stretch:normal;font-size:medium;line-height:125%;font-family:'DejaVu Sans';-inkscape-font-specification:'DejaVu Sans';letter-spacing:0px;word-spacing:0px;fill:#333333;fill-opacity:1;stroke:none;stroke-width:1px;stroke-linecap:butt;stroke-linejoin:miter;stroke-opacity:1"
       d="m 295.29427,114.3786 0,2.30957 q -1.04737,-0.57739 -2.10816,-0.85937 -1.04736,-0.29541 -2.12158,-0.29541 -2.40357,0 -3.73291,1.53076 -1.32935,1.51733 -1.32935,4.27002 0,2.75268 1.32935,4.28344 1.32934,1.51734 3.73291,1.51734 1.07422,0 2.12158,-0.28198 1.06079,-0.29541 2.10816,-0.87281 l 0,2.28272 q -1.03394,0.4834 -2.14844,0.7251 -1.10108,0.2417 -2.34986,0.2417 -3.39721,0 -5.39794,-2.13501 -2.00074,-2.13501 -2.00074,-5.7605 0,-3.6792 2.01416,-5.78736 2.02759,-2.10815 5.54566,-2.10815 1.14135,0 2.229,0.2417 1.08765,0.22827 2.10816,0.69824 z" />
    <path
       inkscape:connector-curvature="0"
       id="path4176"
       style="font-style:normal;font-variant:normal;font-weight:normal;font-stretch:normal;font-size:medium;line-height:125%;font-family:'DejaVu Sans';-inkscape-font-specification:'DejaVu Sans';letter-spacing:0px;word-spacing:0px;fill:#333333;fill-opacity:1;stroke:none;stroke-width:1px;stroke-linecap:butt;stroke-linejoin:miter;stroke-opacity:1"
       d="m 305.44563,115.53339 q -1.9873,0 -3.14209,1.55761 -1.15478,1.54419 -1.15478,4.24317 0,2.69897 1.14136,4.25659 1.15478,1.54419 3.15551,1.54419 1.97388,0 3.12867,-1.55762 1.15478,-1.55762 1.15478,-4.24316 0,-2.67212 -1.15478,-4.22974 -1.15479,-1.57104 -3.12867,-1.57104 z m 0,-2.09473 q 3.22266,0 5.06226,2.09473 1.8396,2.09472 1.8396,5.80078 0,3.69262 -1.8396,5.80078 -1.8396,2.09473 -5.06226,2.09473 -3.23608,0 -5.07568,-2.09473 -1.82617,-2.10816 -1.82617,-5.80078 0,-3.70606 1.82617,-5.80078 1.8396,-2.09473 5.07568,-2.09473 z" />
    <path
       inkscape:connector-curvature="0"
       id="path4178"
       style="font-style:normal;font-variant:normal;font-weight:normal;font-stretch:normal;font-size:medium;line-height:125%;font-family:'DejaVu Sans';-inkscape-font-specification:'DejaVu Sans';letter-spacing:0px;word-spacing:0px;fill:#333333;fill-opacity:1;stroke:none;stroke-width:1px;stroke-linecap:butt;stroke-linejoin:miter;stroke-opacity:1"
       d="m 328.1385,116.68817 q 0.92652,-1.66504 2.21558,-2.45727 1.28906,-0.79224 3.03467,-0.79224 2.34985,0 3.62549,1.65161 1.27563,1.63818 1.27563,4.67285 l 0,9.07715 -2.48413,0 0,-8.99658 q 0,-2.16187 -0.76538,-3.20923 -0.76538,-1.04736 -2.33643,-1.04736 -1.92016,0 -3.03466,1.27563 -1.11451,1.27564 -1.11451,3.47779 l 0,8.49975 -2.48413,0 0,-8.99658 q 0,-2.17529 -0.76538,-3.20923 -0.76538,-1.04736 -2.36328,-1.04736 -1.89331,0 -3.00781,1.28906 -1.1145,1.27563 -1.1145,3.46436 l 0,8.49975 -2.48413,0 0,-15.03906 2.48413,0 0,2.33642 q 0.84594,-1.38305 2.02758,-2.04101 1.18164,-0.65796 2.8064,-0.65796 1.63818,0 2.77954,0.83252 1.15479,0.83252 1.70532,2.41699 z" />
    <path
       inkscape:connector-curvature="0"
       id="path4182"
       style="font-style:normal;font-variant:normal;font-weight:normal;font-stretch:normal;font-size:medium;line-height:125%;font-family:'DejaVu Sans';-inkscape-font-specification:'DejaVu Sans';letter-spacing:0px;word-spacing:0px;fill:#333333;fill-opacity:1;stroke:none;stroke-width:1px;stroke-linecap:butt;stroke-linejoin:miter;stroke-opacity:1"
       d="m 366.51497,115.53339 q -1.98731,0 -3.14209,1.55761 -1.15479,1.54419 -1.15479,4.24317 0,2.69897 1.14136,4.25659 1.15479,1.54419 3.15552,1.54419 1.97388,0 3.12866,-1.55762 1.15479,-1.55762 1.15479,-4.24316 0,-2.67212 -1.15479,-4.22974 -1.15478,-1.57104 -3.12866,-1.57104 z m 0,-2.09473 q 3.22266,0 5.06225,2.09473 1.8396,2.09472 1.8396,5.80078 0,3.69262 -1.8396,5.80078 -1.83959,2.09473 -5.06225,2.09473 -3.23609,0 -5.07568,-2.09473 -1.82618,-2.10816 -1.82618,-5.80078 0,-3.70606 1.82618,-5.80078 1.83959,-2.09473 5.07568,-2.09473 z" />
    <path
       inkscape:connector-curvature="0"
       id="path4184"
       style="font-style:normal;font-variant:normal;font-weight:normal;font-stretch:normal;font-size:medium;line-height:125%;font-family:'DejaVu Sans';-inkscape-font-specification:'DejaVu Sans';letter-spacing:0px;word-spacing:0px;fill:#333333;fill-opacity:1;stroke:none;stroke-width:1px;stroke-linecap:butt;stroke-linejoin:miter;stroke-opacity:1"
       d="m 386.21346,116.11078 q -0.41626,-0.2417 -0.91309,-0.34912 -0.4834,-0.12085 -1.07422,-0.12085 -2.09473,0 -3.22266,1.36963 -1.1145,1.3562 -1.1145,3.90747 l 0,7.92236 -2.48413,0 0,-15.03906 2.48413,0 0,2.33642 q 0.77881,-1.36962 2.02759,-2.02758 1.24878,-0.67139 3.03467,-0.67139 0.25513,0 0.56396,0.0403 0.30884,0.0269 0.68482,0.094 l 0.0134,2.53784 z" />
    <path
       style="font-style:normal;font-variant:normal;font-weight:normal;font-stretch:normal;font-size:medium;line-height:125%;font-family:'DejaVu Sans';-inkscape-font-specification:'DejaVu Sans';letter-spacing:0px;word-spacing:0px;fill:#2f2f2f;fill-opacity:1;stroke:none;stroke-width:1px;stroke-linecap:butt;stroke-linejoin:miter;stroke-opacity:1"
       d="m 562.94922,15.09375 0,68.25 -42.5,0 0,-35.25 -31.75,0 0,-14.451172 -3.46484,0 0,2.5 0.96484,0 0,14.451172 31.75,0 0,35.25 47.5,0 0,-68.25 41.75,0 0,2.287109 c 0.89736,-0.01064 1.81283,-0.01669 2.5,-0.02539 l 0,-4.761719 -46.75,0 z m 46.75,7.261719 c -0.62078,0.008 -1.6846,0.01559 -2.5,0.02539 l 0,16.962891 18.375,0 0,-2.5 -15.875,0 0,-14.488281 z m -166.75,1.238281 0,45.75 -5.58984,0 0,2.5 8.08984,0 0,-45.75 8,0 0,10.048828 29.28516,0 0,-2.5 -26.78516,0 0,-10.048828 -13,0 z m -85,7.5 0,29 c -1.43002,-0.0029 -2.79187,-4.3e-5 -4.21484,-0.002 l 0,2.509765 c 2.25691,0.0028 4.5118,0.0039 6.71484,-0.0078 l 0,-29 29.75,0 0,43.5 30.75,0 0,-5.25 13.91016,0 0,-2.5 -16.41016,0 0,5.25 -25.75,0 0,-43.5 -34.75,0 z m -31.02539,15.402344 c -2.25586,0 -4.05095,0.723638 -5.38477,2.173828 -1.32487,1.44125 -1.98633,3.393719 -1.98633,5.855469 0,2.38119 0.69726,4.269525 2.09375,5.666015 1.40544,1.39649 3.30819,2.139728 5.70704,2.173828 7.57221,0.1087 15.79798,0.206174 23.88086,0.232422 l 0,-2.505859 c -7.98918,-0.0077 -15.95989,-0.0098 -23.73243,-0.0098 -2.20443,0 -2.91975,-0.33252 -3.84179,-1.21875 -0.91309,-0.89518 -1.42188,-2.193681 -1.5293,-3.894531 l 11.35937,0 0,-1.208984 c 0,-2.23795 -0.59179,-4.006678 -1.77343,-5.304688 -1.17269,-1.30697 -2.76986,-1.958984 -4.79297,-1.958984 z m 0.0273,2.09375 c 1.21745,0 2.19173,0.403324 2.92578,1.208984 0.74297,0.80567 1.12468,1.884598 1.14258,3.236328 l -8.80859,0.01367 c 0.12532,-1.41439 0.60026,-2.512205 1.42383,-3.291016 0.83251,-0.77881 1.93781,-1.167968 3.3164,-1.167968 z"
       transform="translate(67.614896,66.943021)"
       id="path4186"
       inkscape:connector-curvature="0" />
    <path
       style="color:#000000;font-style:normal;font-variant:normal;font-weight:normal;font-stretch:normal;font-size:medium;line-height:normal;font-family:sans-serif;text-indent:0;text-align:start;text-decoration:none;text-decoration-line:none;text-decoration-style:solid;text-decoration-color:#000000;letter-spacing:normal;word-spacing:normal;text-transform:none;direction:ltr;block-progression:tb;writing-mode:lr-tb;baseline-shift:baseline;text-anchor:start;white-space:normal;clip-rule:nonzero;display:inline;overflow:visible;visibility:visible;opacity:1;isolation:auto;mix-blend-mode:normal;color-interpolation:sRGB;color-interpolation-filters:linearRGB;solid-color:#000000;solid-opacity:1;fill:#3f51b5;fill-opacity:1;fill-rule:evenodd;stroke:none;stroke-width:2.5;stroke-linecap:butt;stroke-linejoin:miter;stroke-miterlimit:4;stroke-dasharray:none;stroke-dashoffset:0;stroke-opacity:1;color-rendering:auto;image-rendering:auto;shape-rendering:auto;text-rendering:auto;enable-background:accumulate"
       d="m 482.73438,0.29296875 0,58.12500025 -37.28516,0 0,2.5 39.78516,0 0,-58.1250002 15.25,0 0,44.3750002 34.25,0 0,36.175781 2.5,0 0,-38.675781 -34.25,0 0,-44.37500025 -20.25,0 z M 42.917969,3.5429688 l 0,12.6679692 2.5,0 0,-10.1679692 26.875,0 0,67.7500002 22.875,0 0,-30.080078 -2.5,0 0,27.580078 -17.875,0 0,-67.7500002 -31.875,0 z m 0,15.1679692 0,46.25 -39.3750002,0 0,2.5 41.8750002,0 0,-48.75 -2.5,0 z m 573.941411,1.064453 -1.26758,0.01758 c 0,0 -8.90428,0.125041 -17.86719,0.1875 -4.48145,0.03123 -8.97817,0.0468 -12.37695,0.02344 -1.69939,-0.01168 -3.1265,-0.03295 -4.12696,-0.06641 -0.50023,-0.01673 -0.89653,-0.03796 -1.14648,-0.05859 -0.11159,-0.0092 -0.17932,-0.01886 -0.21094,-0.02344 -0.002,-8.22e-4 -0.0234,-0.01365 -0.0234,-0.01367 -0.002,-5.81e-4 -0.84186,0.04023 -0.84375,0.04102 -0.002,7.81e-4 -0.38083,0.235111 -0.4707,0.337891 -0.0899,0.102781 -0.13588,0.183593 -0.16992,0.248047 -0.13616,0.257816 -0.12567,0.330038 -0.14258,0.416016 -0.0338,0.171957 -0.043,0.301166 -0.0566,0.472656 -0.0273,0.342981 -0.0471,0.806172 -0.0644,1.402344 -0.0348,1.192344 -0.0566,2.897562 -0.0684,4.958984 -0.0235,4.122845 -0.008,9.657801 0.0234,15.207031 0.0625,11.09845 0.1875,22.25586 0.1875,22.25586 l 0,24.611328 -41,0 0,-3.949219 -2.5,0 0,6.449219 46,0 0,-27.132813 0,-0.0059 c 0,0 -0.12504,-11.155031 -0.1875,-22.244141 -0.0312,-5.54456 -0.0468,-11.072037 -0.0234,-15.175781 0.0117,-2.051871 0.0328,-3.749955 0.0664,-4.902344 0.006,-0.191186 0.0133,-0.263697 0.0195,-0.423828 0.18281,0.0085 0.31175,0.02007 0.52929,0.02734 1.04348,0.0349 2.48065,0.0566 4.19141,0.06836 3.42153,0.02352 7.92481,0.0078 12.41211,-0.02344 8.33852,-0.05811 15.48507,-0.158234 16.61719,-0.173828 l 0,14.537109 2.5,0 0,-17.068359 z m -36.98243,0.08789 c 0.008,0.0021 -9.6e-4,4.1e-5 0.0117,0.0039 0.0557,0.01653 0.15373,-0.03378 0.47852,0.291015 -0.0963,-0.0963 -0.43725,-0.268366 -0.49024,-0.294922 z m -1.27734,2.064453 c 0.0974,0.09735 0.49137,0.294118 0.50781,0.302735 0.006,0.001 0.0156,0.0046 0.0215,0.0059 -3e-4,2.3e-5 -0.0118,-9e-6 -0.0117,0 4e-5,1.3e-5 -0.009,-0.0057 -0.01,-0.0059 -0.0978,-0.01627 -0.21406,-0.009 -0.50781,-0.302735 z m -227.36523,2.865235 0,40.125 -220.19141,0 0,-27.5 -38.375001,0 0,3.794922 2.5,0 0,-1.294922 33.375001,0 0,27.5 225.19141,0 0,-40.125 31.25,0 0,3.800781 2.5,0 0,-6.300781 -36.25,0 z m 33.75,8.800781 0,51.574219 52.375,0 0,-24.25 5.58984,0 0,-2.5 -8.08984,0 0,24.25 -47.375,0 0,-49.074219 -2.5,0 z m 229.375,5.75 0,2.949219 14.5,0 0,-2.5 -12,0 0,-0.449219 -2.5,0 z"
       transform="translate(67.614896,66.943021)"
       id="path4191"
       inkscape:connector-curvature="0" />
    <path
       sodipodi:nodetypes="cccccccscscsccscscscscs"
       inkscape:connector-curvature="0"
       id="path4180"
       style="font-style:normal;font-variant:normal;font-weight:normal;font-stretch:normal;font-size:medium;line-height:125%;font-family:'DejaVu Sans';-inkscape-font-specification:'DejaVu Sans';letter-spacing:0px;word-spacing:0px;fill:#333333;fill-opacity:1;stroke:none;stroke-width:1px;stroke-linecap:butt;stroke-linejoin:miter;stroke-opacity:1"
       d="m 345.62141,126.58441 0,10.28858 -2.48413,0 0,-23.07178 2.48413,0 0,2.28271 c 0.51921,-0.89518 1.17269,-1.55761 1.96045,-1.9873 0.79671,-0.43864 1.74561,-0.65796 2.84668,-0.65796 1.82617,0 3.3077,0.7251 4.44458,2.17529 1.14583,1.4502 1.71875,3.35694 1.71875,5.72022 0,2.36328 -0.57292,4.27002 -1.71875,5.72021 -1.13688,1.4502 -2.61841,2.1753 -4.44458,2.1753 -1.10107,0 -2.04997,-0.21485 -2.84668,-0.64454 -0.78776,-0.43863 -1.44124,-1.10554 -1.96045,-2.00073 z m 8.40577,-5.25024 c 0,-1.81722 -0.37598,-3.24056 -1.12793,-4.27002 -0.74301,-1.03841 -1.76799,-1.55762 -3.07495,-1.55762 -1.30697,0 -2.33643,0.51921 -3.08838,1.55762 -0.74301,1.02946 -1.11451,2.4528 -1.11451,4.27002 0,1.81722 0.3715,3.24503 1.11451,4.28344 0.75195,1.02946 1.78141,1.54419 3.08838,1.54419 1.30696,0 2.33194,-0.51473 3.07495,-1.54419 0.75195,-1.03841 1.12793,-2.46622 1.12793,-4.28344 z" />
  </g>
</svg>
