<?xml version="1.0" encoding="UTF-8" standalone="no"?>
<!-- Created with Inkscape (http://www.inkscape.org/) -->

<svg
   xmlns:dc="http://purl.org/dc/elements/1.1/"
   xmlns:cc="http://creativecommons.org/ns#"
   xmlns:rdf="http://www.w3.org/1999/02/22-rdf-syntax-ns#"
   xmlns:svg="http://www.w3.org/2000/svg"
   xmlns="http://www.w3.org/2000/svg"
   xmlns:sodipodi="http://sodipodi.sourceforge.net/DTD/sodipodi-0.dtd"
   xmlns:inkscape="http://www.inkscape.org/namespaces/inkscape"
   width="95.676834mm"
   height="23.243837mm"
   viewBox="0 0 339.0124 82.360053"
   id="svg2"
   version="1.1"
   inkscape:version="0.91 r13725"
   sodipodi:docname="Nanocompore_logo.svg">
  <defs
     id="defs4" />
  <sodipodi:namedview
     id="base"
     pagecolor="#ffffff"
     bordercolor="#666666"
     borderopacity="1.0"
     inkscape:pageopacity="0.0"
     inkscape:pageshadow="2"
     inkscape:zoom="2"
     inkscape:cx="138.08389"
     inkscape:cy="-19.936525"
     inkscape:document-units="px"
     inkscape:current-layer="layer1"
     showgrid="false"
     fit-margin-top="1"
     fit-margin-left="1"
     fit-margin-right="1"
     fit-margin-bottom="1"
     inkscape:window-width="2560"
     inkscape:window-height="1376"
     inkscape:window-x="0"
     inkscape:window-y="27"
     inkscape:window-maximized="1" />
  <metadata
     id="metadata7">
    <rdf:RDF>
      <cc:Work
         rdf:about="">
        <dc:format>image/svg+xml</dc:format>
        <dc:type
           rdf:resource="http://purl.org/dc/dcmitype/StillImage" />
        <dc:title></dc:title>
      </cc:Work>
    </rdf:RDF>
  </metadata>
  <g
     inkscape:label="Layer 1"
     inkscape:groupmode="layer"
     id="layer1"
     transform="translate(-67.614896,-66.943021)">
    <path
       style="font-style:normal;font-variant:normal;font-weight:normal;font-stretch:normal;font-size:medium;line-height:125%;font-family:'DejaVu Sans';-inkscape-font-specification:'DejaVu Sans';letter-spacing:0px;word-spacing:0px;fill:#333333;fill-opacity:1;stroke:none;stroke-width:1px;stroke-linecap:butt;stroke-linejoin:miter;stroke-opacity:1"
       d="m 105.29102,83.154297 0,44.195313 -30.318364,0 0,2.5 32.818364,0 0,-44.195313 19.97656,0 0,60.105473 26.99609,0 0,-5.02344 -2.5,0 0,2.52344 -21.99609,0 0,-60.105473 -24.97656,0 z m 46.97265,25.001953 0,30.08008 2.5,0 0,-27.58008 35.88477,0 0,18.18164 c 1.83667,-6.6e-4 3.12968,2e-5 5.50976,0 l 0,-2.5 -3.00976,0 0,-18.18164 -40.88477,0 z m 60.61133,0.63672 0,17.54492 -14.2168,0 0,2.5 c 7.48578,5.3e-4 16.84766,0.002 16.84766,0.002 l 0,-16.77148 8.89062,16.77148 3.65235,0 0,-20.04687 -2.63281,0 0,16.77148 -8.88868,-16.77148 -3.65234,0 z"
       id="path4166"
       inkscape:connector-curvature="0" />
    <path
       inkscape:connector-curvature="0"
       id="path4168"
       style="font-style:normal;font-variant:normal;font-weight:normal;font-stretch:normal;font-size:medium;line-height:125%;font-family:'DejaVu Sans';-inkscape-font-specification:'DejaVu Sans';letter-spacing:0px;word-spacing:0px;fill:#333333;fill-opacity:1;stroke:none;stroke-width:1px;stroke-linecap:butt;stroke-linejoin:miter;stroke-opacity:1"
       d="m 240.17342,121.28046 q -2.99439,0 -4.14917,0.68481 -1.15479,0.68482 -1.15479,2.33643 0,1.31591 0.85938,2.09472 0.8728,0.76538 2.36328,0.76538 2.05444,0 3.28979,-1.45019 1.24878,-1.46362 1.24878,-3.88062 l 0,-0.55053 -2.45727,0 z m 4.92797,-1.02051 0,8.58032 -2.4707,0 0,-2.28271 q -0.84595,1.36963 -2.10815,2.02758 -1.26221,0.64454 -3.08838,0.64454 -2.30957,0 -3.6792,-1.28907 -1.3562,-1.30249 -1.3562,-3.47778 0,-2.53784 1.69189,-3.8269 1.70532,-1.28907 5.07569,-1.28907 l 3.46435,0 0,-0.2417 q 0,-1.70532 -1.12793,-2.63183 -1.1145,-0.93994 -3.14209,-0.93994 -1.28906,0 -2.51098,0.30883 -1.22193,0.30884 -2.34986,0.92652 l 0,-2.28272 q 1.3562,-0.52368 2.63184,-0.77881 1.27563,-0.26855 2.48413,-0.26855 3.26294,0 4.87427,1.69189 1.61132,1.6919 1.61132,5.1294 z" />
    <path
       inkscape:connector-curvature="0"
       id="path4170"
       style="font-style:normal;font-variant:normal;font-weight:normal;font-stretch:normal;font-size:medium;line-height:125%;font-family:'DejaVu Sans';-inkscape-font-specification:'DejaVu Sans';letter-spacing:0px;word-spacing:0px;fill:#333333;fill-opacity:1;stroke:none;stroke-width:1px;stroke-linecap:butt;stroke-linejoin:miter;stroke-opacity:1"
       d="m 262.70515,119.76312 0,9.07715 -2.4707,0 0,-8.99658 q 0,-2.13501 -0.83252,-3.1958 -0.83252,-1.06079 -2.49756,-1.06079 -2.00073,0 -3.15551,1.27563 -1.15479,1.27564 -1.15479,3.47779 l 0,8.49975 -2.48413,0 0,-15.03906 2.48413,0 0,2.33642 q 0.88623,-1.3562 2.0813,-2.02758 1.2085,-0.67139 2.77954,-0.67139 2.59155,0 3.9209,1.61133 1.32934,1.5979 1.32934,4.71313 z" />
    <path
       inkscape:connector-curvature="0"
       id="path4172"
       style="font-style:normal;font-variant:normal;font-weight:normal;font-stretch:normal;font-size:medium;line-height:125%;font-family:'DejaVu Sans';-inkscape-font-specification:'DejaVu Sans';letter-spacing:0px;word-spacing:0px;fill:#333333;fill-opacity:1;stroke:none;stroke-width:1px;stroke-linecap:butt;stroke-linejoin:miter;stroke-opacity:1"
       d="m 273.48763,115.53339 q -1.98731,0 -3.14209,1.55761 -1.15479,1.54419 -1.15479,4.24317 0,2.69897 1.14136,4.25659 1.15478,1.54419 3.15552,1.54419 1.97387,0 3.12866,-1.55762 1.15478,-1.55762 1.15478,-4.24316 0,-2.67212 -1.15478,-4.22974 -1.15479,-1.57104 -3.12866,-1.57104 z m 0,-2.09473 q 3.22265,0 5.06225,2.09473 1.8396,2.09472 1.8396,5.80078 0,3.69262 -1.8396,5.80078 -1.8396,2.09473 -5.06225,2.09473 -3.23609,0 -5.07569,-2.09473 -1.82617,-2.10816 -1.82617,-5.80078 0,-3.70606 1.82617,-5.80078 1.8396,-2.09473 5.07569,-2.09473 z" />
    <path
       inkscape:connector-curvature="0"
       id="path4174"
       style="font-style:normal;font-variant:normal;font-weight:normal;font-stretch:normal;font-size:medium;line-height:125%;font-family:'DejaVu Sans';-inkscape-font-specification:'DejaVu Sans';letter-spacing:0px;word-spacing:0px;fill:#333333;fill-opacity:1;stroke:none;stroke-width:1px;stroke-linecap:butt;stroke-linejoin:miter;stroke-opacity:1"
       d="m 295.29427,114.3786 0,2.30957 q -1.04737,-0.57739 -2.10816,-0.85937 -1.04736,-0.29541 -2.12158,-0.29541 -2.40357,0 -3.73291,1.53076 -1.32935,1.51733 -1.32935,4.27002 0,2.75268 1.32935,4.28344 1.32934,1.51734 3.73291,1.51734 1.07422,0 2.12158,-0.28198 1.06079,-0.29541 2.10816,-0.87281 l 0,2.28272 q -1.03394,0.4834 -2.14844,0.7251 -1.10108,0.2417 -2.34986,0.2417 -3.39721,0 -5.39794,-2.13501 -2.00074,-2.13501 -2.00074,-5.7605 0,-3.6792 2.01416,-5.78736 2.02759,-2.10815 5.54566,-2.10815 1.14135,0 2.229,0.2417 1.08765,0.22827 2.10816,0.69824 z" />
    <path
       inkscape:connector-curvature="0"
       id="path4176"
       style="font-style:normal;font-variant:normal;font-weight:normal;font-stretch:normal;font-size:medium;line-height:125%;font-family:'DejaVu Sans';-inkscape-font-specification:'DejaVu Sans';letter-spacing:0px;word-spacing:0px;fill:#333333;fill-opacity:1;stroke:none;stroke-width:1px;stroke-linecap:butt;stroke-linejoin:miter;stroke-opacity:1"
       d="m 305.44563,115.53339 q -1.9873,0 -3.14209,1.55761 -1.15478,1.54419 -1.15478,4.24317 0,2.69897 1.14136,4.25659 1.15478,1.54419 3.15551,1.54419 1.97388,0 3.12867,-1.55762 1.15478,-1.55762 1.15478,-4.24316 0,-2.67212 -1.15478,-4.22974 -1.15479,-1.57104 -3.12867,-1.57104 z m 0,-2.09473 q 3.22266,0 5.06226,2.09473 1.8396,2.09472 1.8396,5.80078 0,3.69262 -1.8396,5.80078 -1.8396,2.09473 -5.06226,2.09473 -3.23608,0 -5.07568,-2.09473 -1.82617,-2.10816 -1.82617,-5.80078 0,-3.70606 1.82617,-5.80078 1.8396,-2.09473 5.07568,-2.09473 z" />
    <path
       inkscape:connector-curvature="0"
       id="path4178"
       style="font-style:normal;font-variant:normal;font-weight:normal;font-stretch:normal;font-size:medium;line-height:125%;font-family:'DejaVu Sans';-inkscape-font-specification:'DejaVu Sans';letter-spacing:0px;word-spacing:0px;fill:#333333;fill-opacity:1;stroke:none;stroke-width:1px;stroke-linecap:butt;stroke-linejoin:miter;stroke-opacity:1"
       d="m 328.1385,116.68817 q 0.92652,-1.66504 2.21558,-2.45727 1.28906,-0.79224 3.03467,-0.79224 2.34985,0 3.62549,1.65161 1.27563,1.63818 1.27563,4.67285 l 0,9.07715 -2.48413,0 0,-8.99658 q 0,-2.16187 -0.76538,-3.20923 -0.76538,-1.04736 -2.33643,-1.04736 -1.92016,0 -3.03466,1.27563 -1.11451,1.27564 -1.11451,3.47779 l 0,8.49975 -2.48413,0 0,-8.99658 q 0,-2.17529 -0.76538,-3.20923 -0.76538,-1.04736 -2.36328,-1.04736 -1.89331,0 -3.00781,1.28906 -1.1145,1.27563 -1.1145,3.46436 l 0,8.49975 -2.48413,0 0,-15.03906 2.48413,0 0,2.33642 q 0.84594,-1.38305 2.02758,-2.04101 1.18164,-0.65796 2.8064,-0.65796 1.63818,0 2.77954,0.83252 1.15479,0.83252 1.70532,2.41699 z" />
    <path
       inkscape:connector-curvature="0"
       id="path4182"
       style="font-style:normal;font-variant:normal;font-weight:normal;font-stretch:normal;font-size:medium;line-height:125%;font-family:'DejaVu Sans';-inkscape-font-specification:'DejaVu Sans';letter-spacing:0px;word-spacing:0px;fill:#333333;fill-opacity:1;stroke:none;stroke-width:1px;stroke-linecap:butt;stroke-linejoin:miter;stroke-opacity:1"
       d="m 366.51497,115.53339 q -1.98731,0 -3.14209,1.55761 -1.15479,1.54419 -1.15479,4.24317 0,2.69897 1.14136,4.25659 1.15479,1.54419 3.15552,1.54419 1.97388,0 3.12866,-1.55762 1.15479,-1.55762 1.15479,-4.24316 0,-2.67212 -1.15479,-4.22974 -1.15478,-1.57104 -3.12866,-1.57104 z m 0,-2.09473 q 3.22266,0 5.06225,2.09473 1.8396,2.09472 1.8396,5.80078 0,3.69262 -1.8396,5.80078 -1.83959,2.09473 -5.06225,2.09473 -3.23609,0 -5.07568,-2.09473 -1.82618,-2.10816 -1.82618,-5.80078 0,-3.70606 1.82618,-5.80078 1.83959,-2.09473 5.07568,-2.09473 z" />
    <path
       inkscape:connector-curvature="0"
       id="path4184"
       style="font-style:normal;font-variant:normal;font-weight:normal;font-stretch:normal;font-size:medium;line-height:125%;font-family:'DejaVu Sans';-inkscape-font-specification:'DejaVu Sans';letter-spacing:0px;word-spacing:0px;fill:#333333;fill-opacity:1;stroke:none;stroke-width:1px;stroke-linecap:butt;stroke-linejoin:miter;stroke-opacity:1"
       d="m 386.21346,116.11078 q -0.41626,-0.2417 -0.91309,-0.34912 -0.4834,-0.12085 -1.07422,-0.12085 -2.09473,0 -3.22266,1.36963 -1.1145,1.3562 -1.1145,3.90747 l 0,7.92236 -2.48413,0 0,-15.03906 2.48413,0 0,2.33642 q 0.77881,-1.36962 2.02759,-2.02758 1.24878,-0.67139 3.03467,-0.67139 0.25513,0 0.56396,0.0403 0.30884,0.0269 0.68482,0.094 l 0.0134,2.53784 z" />
    <path
       inkscape:connector-curvature="0"
       id="path4186"
       style="font-style:normal;font-variant:normal;font-weight:normal;font-stretch:normal;font-size:medium;line-height:125%;font-family:'DejaVu Sans';-inkscape-font-specification:'DejaVu Sans';letter-spacing:0px;word-spacing:0px;fill:#333333;fill-opacity:1;stroke:none;stroke-width:1px;stroke-linecap:butt;stroke-linejoin:miter;stroke-opacity:1"
       d="m 401.10481,120.70306 0,1.2085 -11.35986,0 q 0.16113,2.55127 1.53076,3.89404 1.38306,1.32935 3.84033,1.32935 1.42334,0 2.75269,-0.34912 1.34277,-0.34912 2.65869,-1.04737 l 0,2.33643 q -1.32935,0.56396 -2.72583,0.85938 -1.39648,0.29541 -2.83325,0.29541 -3.59863,0 -5.70679,-2.09473 -2.09473,-2.09473 -2.09473,-5.66651 0,-3.69262 1.98731,-5.85449 2.00073,-2.17529 5.38452,-2.17529 3.03467,0 4.7937,1.96045 1.77246,1.94702 1.77246,5.30395 z m -2.4707,-0.72509 q -0.0269,-2.02759 -1.14136,-3.23609 -1.10107,-1.20849 -2.92724,-1.20849 -2.06788,0 -3.31665,1.16821 -1.23536,1.16821 -1.42334,3.28979 l 8.80859,-0.0134 z" />
    <path
       style="color:#000000;font-style:normal;font-variant:normal;font-weight:normal;font-stretch:normal;font-size:medium;line-height:normal;font-family:sans-serif;text-indent:0;text-align:start;text-decoration:none;text-decoration-line:none;text-decoration-style:solid;text-decoration-color:#000000;letter-spacing:normal;word-spacing:normal;text-transform:none;direction:ltr;block-progression:tb;writing-mode:lr-tb;baseline-shift:baseline;text-anchor:start;white-space:normal;clip-rule:nonzero;display:inline;overflow:visible;visibility:visible;opacity:1;isolation:auto;mix-blend-mode:normal;color-interpolation:sRGB;color-interpolation-filters:linearRGB;solid-color:#000000;solid-opacity:1;fill:#c83737;fill-opacity:1;fill-rule:evenodd;stroke:none;stroke-width:2.5;stroke-linecap:butt;stroke-linejoin:miter;stroke-miterlimit:4;stroke-dasharray:none;stroke-dashoffset:0;stroke-opacity:1;color-rendering:auto;image-rendering:auto;shape-rendering:auto;text-rendering:auto;enable-background:accumulate"
       d="m 110.5332,70.486328 0,12.667969 2.5,0 0,-10.167969 26.875,0 0,67.750002 22.875,0 0,-30.08008 -2.5,0 0,27.58008 -17.875,0 0,-67.750002 z m 0,15.167969 0,46.250003 -39.374997,0 0,2.5 41.874997,0 0,-48.750003 z m 292.55078,48.707033 0,-2.5 -204.42578,0 0,-27.5 -38.375,0 0,3.79492 2.5,0 0,-1.29492 33.375,0 0,27.5 z"
       id="path4191"
       inkscape:connector-curvature="0"
       sodipodi:nodetypes="ccccccccccccccccccccccccccccccc" />
    <path
       sodipodi:nodetypes="cccccccscscsccscscscscs"
       inkscape:connector-curvature="0"
       id="path4180"
       style="font-style:normal;font-variant:normal;font-weight:normal;font-stretch:normal;font-size:medium;line-height:125%;font-family:'DejaVu Sans';-inkscape-font-specification:'DejaVu Sans';letter-spacing:0px;word-spacing:0px;fill:#333333;fill-opacity:1;stroke:none;stroke-width:1px;stroke-linecap:butt;stroke-linejoin:miter;stroke-opacity:1"
       d="m 345.62141,126.58441 0,10.28858 -2.48413,0 0,-23.07178 2.48413,0 0,2.28271 c 0.51921,-0.89518 1.17269,-1.55761 1.96045,-1.9873 0.79671,-0.43864 1.74561,-0.65796 2.84668,-0.65796 1.82617,0 3.3077,0.7251 4.44458,2.17529 1.14583,1.4502 1.71875,3.35694 1.71875,5.72022 0,2.36328 -0.57292,4.27002 -1.71875,5.72021 -1.13688,1.4502 -2.61841,2.1753 -4.44458,2.1753 -1.10107,0 -2.04997,-0.21485 -2.84668,-0.64454 -0.78776,-0.43863 -1.44124,-1.10554 -1.96045,-2.00073 z m 8.40577,-5.25024 c 0,-1.81722 -0.37598,-3.24056 -1.12793,-4.27002 -0.74301,-1.03841 -1.76799,-1.55762 -3.07495,-1.55762 -1.30697,0 -2.33643,0.51921 -3.08838,1.55762 -0.74301,1.02946 -1.11451,2.4528 -1.11451,4.27002 0,1.81722 0.3715,3.24503 1.11451,4.28344 0.75195,1.02946 1.78141,1.54419 3.08838,1.54419 1.30696,0 2.33194,-0.51473 3.07495,-1.54419 0.75195,-1.03841 1.12793,-2.46622 1.12793,-4.28344 z" />
  </g>
</svg>
